#!OML:ASF F:\VICON\USERDATA\INSTALL\rory3\rory3.ASF
:FULLY-SPECIFIED
:DEGREES
1327
root -4.44683 17.9632 -10.0055 20.3963 -33.0264 7.64563
lowerback 13.4238 -7.01146 -2.0467
upperback 6.54503 -9.51026 8.31111
thorax 1.35835 -5.14226 11.1249
lowerneck -11.2354 -3.07911 -13.2343
upperneck 30.1714 -4.74105 9.59282
head 12.3413 -2.5949 5.30638
rclavicle 6.36111e-014 -1.27222e-014
rhumerus -4.06041 -50.0819 -62.1402
rradius 25.9603
rwrist -15.2893
rhand -42.211 -32.1566
rfingers 7.12502
rthumb -15.0985 -61.5859
lclavicle 6.36111e-014 -1.27222e-014
lhumerus 31.9325 -71.3019 73.0408
lradius 67.016
lwrist 49.7242
lhand -4.5847 53.6728
lfingers 7.12502
lthumb 21.1924 -997.466
rfemur -38.9794 5.62101 6.46358
rtibia 34.5851
rfoot -15.1737 4.16694
rtoes 2.76024
lfemur -33.0319 5.25544 -20.7255
ltibia 37.3042
lfoot -8.67282 5.36038
ltoes -19.6418
1328
root -4.43587 17.9593 -9.95415 20.3047 -33.2298 7.56549
lowerback 13.6183 -6.66152 -2.23007
upperback 6.53211 -9.06457 8.31781
thorax 1.17756 -4.91666 11.2347
lowerneck -11.3224 -3.32347 -12.8001
upperneck 30.2308 -5.14365 9.44807
head 12.4258 -2.73683 5.11732
rclavicle -1.90833e-014 -8.74653e-015
rhumerus -4.87077 -50.1549 -61.0659
rradius 25.8439
rwrist -16.036
rhand -42.525 -32.1028
rfingers 7.12502
rthumb -15.4009 -61.5091
lclavicle -1.90833e-014 -8.74653e-015
lhumerus 31.7073 -71.7238 73.4532
lradius 67.245
lwrist 49.8029
lhand -5.45495 53.7303
lfingers 7.12502
lthumb 20.3562 -997.317
rfemur -38.7639 5.54043 6.52692
rtibia 34.5959
rfoot -15.242 4.2239
rtoes 1.73471
lfemur -33.1195 4.94907 -20.2278
ltibia 36.4561
lfoot -8.75048 5.45594
ltoes -19.8391
1329
root -4.4239 17.9545 -9.90403 20.2689 -33.3396 7.3992
lowerback 13.2084 -5.8844 -1.39425
upperback 7.00819 -7.97426 7.58528
thorax 1.42126 -4.32126 9.75637
lowerneck -11.9105 -4.10551 -10.5582
upperneck 30.1708 -6.73469 9.46051
head 12.6604 -3.15629 4.48597
rclavicle -2.70347e-014 1.04958e-013
rhumerus -6.63402 -53.2519 -60.2874
rradius 26.052
rwrist -15.6936
rhand -42.9191 -30.8633
rfingers 7.12502
rthumb -15.7804 -60.2401
lclavicle -2.70347e-014 1.04958e-013
lhumerus 37.1877 -73.9919 67.4213
lradius 67.6772
lwrist 50.3933
lhand -6.28233 54.0945
lfingers 7.12502
lthumb 19.5609 -996.87
rfemur -38.5582 5.54518 6.63317
rtibia 34.6356
rfoot -15.4248 4.17195
rtoes 0.56229
lfemur -33.2192 4.57977 -19.5965
ltibia 35.5711
lfoot -8.81367 5.60408
ltoes -18.806
1330
root -4.41232 17.9467 -9.8575 20.1307 -33.3945 7.48684
lowerback 13.2853 -6.5652 -2.09702
upperback 6.74504 -8.94241 7.93013
thorax 1.46059 -4.84875 10.6474
lowerneck -11.3604 -3.3262 -12.1805
upperneck 30.2655 -5.3305 9.55277
head 12.4537 -2.73833 5.02353
rclavicle -8.74653e-015 -5.40694e-014
rhumerus -4.73812 -51.3721 -61.6434
rradius 25.4206
rwrist -14.7153
rhand -43.1564 -30.4184
rfingers 7.12502
rthumb -16.009 -59.777
lclavicle -8.74653e-015 -5.40694e-014
lhumerus 30.3584 -71.5679 73.8935
lradius 67.6855
lwrist 50.3578
lhand -6.53759 54.0332
lfingers 7.12502
lthumb 19.3155 -996.906
rfemur -38.3898 5.62086 6.45261
rtibia 34.7236
rfoot -15.6634 4.05052
rtoes 0.250644
lfemur -33.3575 4.1059 -19.1512
ltibia 34.6098
lfoot -8.8273 5.79725
ltoes -17.4243
1331
root -4.39813 17.9359 -9.81688 20.0221 -33.3347 7.54901
lowerback 13.8098 -6.70561 -2.88661
upperback 6.37266 -9.19504 8.48577
thorax 1.07788 -5.00687 11.854
lowerneck -11.2206 -3.10744 -13.3216
upperneck 30.4493 -4.7631 9.49376
head 12.4564 -2.63492 5.29144
rclavicle -1.03368e-013 2.38542e-014
rhumerus -3.75827 -50.0556 -61.7871
rradius 25.025
rwrist -14.5716
rhand -43.3693 -30.4244
rfingers 7.12502
rthumb -16.214 -59.7664
lclavicle -1.03368e-013 2.38542e-014
lhumerus 26.8405 -70.13 77.6058
lradius 67.8615
lwrist 50.5449
lhand -6.1202 53.5464
lfingers 7.12502
lthumb 19.7168 -997.434
rfemur -38.1991 5.62253 6.31483
rtibia 34.8301
rfoot -15.8917 4.04643
rtoes 0.888705
lfemur -33.5857 3.76014 -18.7189
ltibia 33.6114
lfoot -8.66371 5.8187
ltoes -16.8474
1332
root -4.38424 17.934 -9.77102 19.945 -33.2823 7.53938
lowerback 13.5332 -6.66173 -2.80759
upperback 6.52291 -9.14312 8.3467
thorax 1.33425 -4.98712 11.5918
lowerneck -11.1718 -3.17031 -13.2625
upperneck 30.2272 -4.94312 9.79249
head 12.3855 -2.66779 5.36579
rclavicle -7.31528e-014 -7.79236e-014
rhumerus -3.12485 -50.1513 -62.6825
rradius 24.8792
rwrist -14.6938
rhand -43.3032 -30.2568
rfingers 7.12502
rthumb -16.1503 -59.6039
lclavicle -7.31528e-014 -7.79236e-014
lhumerus 26.621 -69.922 77.2373
lradius 68.0361
lwrist 50.6019
lhand -5.08071 53.3583
lfingers 7.12502
lthumb 20.7159 -997.727
rfemur -38.007 5.56888 6.24881
rtibia 34.956
rfoot -16.0952 4.11564
rtoes 1.07714
lfemur -33.7994 3.41383 -18.2358
ltibia 32.5455
lfoot -8.2871 5.92734
ltoes -17.3928
1333
root -4.37037 17.9306 -9.72078 19.9051 -33.2632 7.42859
lowerback 13.9404 -6.43276 -3.29318
upperback 6.26122 -8.88238 8.8043
thorax 0.945467 -4.86905 12.4597
lowerneck -11.0762 -3.31744 -13.6479
upperneck 30.2603 -5.01329 9.58264
head 12.401 -2.76701 5.34215
rclavicle 7.87187e-014 6.36111e-015
rhumerus -2.72563 -49.3824 -62.3709
rradius 24.7859
rwrist -14.9595
rhand -43.1972 -30.6255
rfingers 7.12502
rthumb -16.0483 -59.9809
lclavicle 7.87187e-014 6.36111e-015
lhumerus 24.9397 -69.4183 79.1942
lradius 68.049
lwrist 50.5352
lhand -8.19975 54.5097
lfingers 7.12502
lthumb 17.7166 -996.277
rfemur -37.7669 5.55949 6.26054
rtibia 35.0554
rfoot -16.2845 4.185
rtoes 1.34504
lfemur -33.9857 3.05816 -17.643
ltibia 31.4581
lfoot -8.01351 6.13811
ltoes -17.7827
1334
root -4.35444 17.9264 -9.66809 19.8019 -33.2558 7.42009
lowerback 13.5101 -6.39116 -2.9065
upperback 6.46701 -8.79678 8.43255
thorax 1.2399 -4.81302 11.7218
lowerneck -11.163 -3.42407 -13.331
upperneck 30.2464 -5.32554 9.9013
head 12.4555 -2.82979 5.3691
rclavicle 2.22639e-014 -1.35174e-014
rhumerus -2.24698 -49.5596 -63.6019
rradius 24.9452
rwrist -15.0546
rhand -43.124 -30.8196
rfingers 7.12502
rthumb -15.9778 -60.1807
lclavicle 2.22639e-014 -1.35174e-014
lhumerus 25.1262 -69.4981 77.9093
lradius 68.264
lwrist 51.0243
lhand -6.36942 52.9867
lfingers 7.12502
lthumb 19.4772 -997.969
rfemur -37.5157 5.57679 6.14941
rtibia 35.1208
rfoot -16.5004 4.143
rtoes 1.07005
lfemur -34.1331 2.73275 -17.1885
ltibia 30.3398
lfoot -7.61699 6.37132
ltoes -18.1498
1335
root -4.33633 17.9218 -9.6161 19.6431 -33.2332 7.44563
lowerback 13.5085 -6.33072 -3.02055
upperback 6.44031 -8.7306 8.47643
thorax 1.2238 -4.78422 11.8347
lowerneck -11.0754 -3.4724 -13.5897
upperneck 30.2495 -5.37703 10.0035
head 12.4587 -2.87188 5.44959
rclavicle -3.18055e-015 -9.06458e-014
rhumerus -1.54609 -48.8949 -64.3749
rradius 24.9044
rwrist -15.1307
rhand -42.9613 -30.1511
rfingers 7.12502
rthumb -15.8211 -59.5246
lclavicle -3.18055e-015 -9.06458e-014
lhumerus 23.7365 -68.9518 78.7745
lradius 68.3742
lwrist 51.1821
lhand -7.2994 52.6088
lfingers 7.12502
lthumb 18.5828 -998.259
rfemur -37.2342 5.69741 5.97593
rtibia 35.1472
rfoot -16.7163 4.00288
rtoes 0.5865
lfemur -34.2537 2.35218 -16.7498
ltibia 29.2029
lfoot -7.16204 6.73483
ltoes -18.9895
1336
root -4.31391 17.9178 -9.56048 19.4162 -33.0581 7.37797
lowerback 13.5453 -6.26505 -2.80702
upperback 6.49356 -8.61988 8.45436
thorax 1.19714 -4.7201 11.6791
lowerneck -10.8821 -3.58817 -13.6876
upperneck 30.0274 -5.56778 10.1493
head 12.3644 -2.94805 5.48933
rclavicle 5.96354e-014 -1.82882e-014
rhumerus -0.737531 -49.0862 -65.3946
rradius 24.8047
rwrist -14.0787
rhand -41.9772 -29.2287
rfingers 7.12502
rthumb -14.8732 -58.6748
lclavicle 5.96354e-014 -1.82882e-014
lhumerus 22.6284 -68.5067 79.3486
lradius 68.3229
lwrist 51.0464
lhand -7.33623 51.8854
lfingers 7.12502
lthumb 18.5474 -998.979
rfemur -36.7816 5.57952 5.99773
rtibia 35.19
rfoot -16.922 3.97226
rtoes 0.25885
lfemur -34.2585 1.90239 -16.2286
ltibia 28.0147
lfoot -6.70351 7.11388
ltoes -20.8653
1337
root -4.2945 17.9133 -9.50619 19.1929 -32.6386 7.4014
lowerback 13.5307 -6.23954 -2.6249
upperback 6.49874 -8.56345 8.49576
thorax 1.176 -4.68535 11.6139
lowerneck -10.7678 -3.74217 -13.734
upperneck 29.9265 -5.80139 10.2145
head 12.3399 -3.04727 5.48685
rclavicle -1.35174e-013 1.03368e-014
rhumerus 0.0479372 -48.9416 -66.3161
rradius 24.8475
rwrist -13.5725
rhand -41.1124 -28.6076
rfingers 7.12502
rthumb -14.0399 -58.1134
lclavicle -1.35174e-013 1.03368e-014
lhumerus 21.6426 -68.155 79.8206
lradius 68.1543
lwrist 51.1108
lhand -7.5996 51.3241
lfingers 7.12502
lthumb 18.2941 -999.516
rfemur -36.2601 5.40354 5.95456
rtibia 35.1871
rfoot -17.2212 3.85882
rtoes 0.313056
lfemur -34.3681 1.13807 -15.6442
ltibia 26.7771
lfoot -6.31532 7.53551
ltoes -21.6765
